<svg width="118" height="130" viewBox="0 0 118 130" fill="none" xmlns="http://www.w3.org/2000/svg">
<path d="M147.911 39C147.911 38.1036 147.613 37.1502 147.031 36.3815L120.742 1.71484C119.929 0.644511 118.63 0 117.289 0H30.6222C29.2974 0 27.9896 0.633245 27.1694 1.71484L0.880533 36.3815C0.298711 37.1497 0 38.0761 0 39C0 39.9952 0.359089 40.972 0.955067 41.7138L70.5773 128.38C71.4165 129.422 72.6772 130 73.9556 130C75.248 130 76.5059 129.408 77.3338 128.38L146.956 41.7138C147.553 40.9708 147.911 39.9883 147.911 39ZM29.8633 12.5054L40.9439 34.6667H13.0578L29.8633 12.5054ZM94.1316 43.3333L73.9556 110.586L53.7796 43.3333H94.1316ZM56.6222 34.6667L73.9556 11.5556L91.2889 34.6667H56.6222ZM82.6222 8.66667H110.278L99.2154 30.7909L82.6222 8.66667ZM48.6957 30.7909L37.6338 8.66667H65.2889L48.6957 30.7909ZM44.7316 43.3333L63.4221 105.635L13.373 43.3333H44.7316ZM103.18 43.3333H134.538L84.4893 105.635L103.18 43.3333ZM106.967 34.6667L118.048 12.5054L134.853 34.6667H106.967Z" fill="#6F87E7"/>
</svg>
