<svg width="38" height="38" viewBox="0 0 38 38" fill="none" xmlns="http://www.w3.org/2000/svg">
<path d="M37.7242 12.4133C37.7242 12.1862 37.6487 11.9447 37.5012 11.75L30.8413 2.96775C30.6354 2.6966 30.3063 2.53333 29.9666 2.53333H8.01105C7.67542 2.53333 7.34411 2.69375 7.13634 2.96775L0.476486 11.75C0.329091 11.9446 0.253418 12.1793 0.253418 12.4133C0.253418 12.6654 0.344387 12.9129 0.495368 13.1008L18.133 35.0564C18.3456 35.3202 18.665 35.4667 18.9888 35.4667C19.3163 35.4667 19.6349 35.3166 19.8447 35.0564L37.4824 13.1008C37.6336 12.9126 37.7242 12.6637 37.7242 12.4133ZM7.81879 5.70137L10.6259 11.3155H3.56139L7.81879 5.70137ZM24.1001 13.5111L18.9888 30.5485L13.8776 13.5111H24.1001ZM14.5977 11.3155L18.9888 5.46073L23.3799 11.3155H14.5977ZM21.1844 4.72888H28.1904L25.388 10.3337L21.1844 4.72888ZM12.5897 10.3337L9.78733 4.72888H16.7933L12.5897 10.3337ZM11.5854 13.5111L16.3203 29.2943L3.64123 13.5111H11.5854ZM26.3923 13.5111H34.3365L21.6574 29.2942L26.3923 13.5111ZM27.3518 11.3155L30.1589 5.70137L34.4163 11.3155H27.3518Z" fill="#6F87E7"/>
</svg>
