<svg width="90" height="16" viewBox="0 0 90 16" fill="none" xmlns="http://www.w3.org/2000/svg">
<path d="M6.36 15.32C5.2 15.32 4.06667 15.1933 2.96 14.94C1.86667 14.6733 0.966667 14.32 0.26 13.88L1.78 10.44C2.44667 10.8267 3.19333 11.14 4.02 11.38C4.84667 11.6067 5.64 11.72 6.4 11.72C7.05333 11.72 7.52 11.66 7.8 11.54C8.08 11.4067 8.22 11.2133 8.22 10.96C8.22 10.6667 8.03333 10.4467 7.66 10.3C7.3 10.1533 6.7 9.99333 5.86 9.82C4.78 9.59333 3.88 9.35333 3.16 9.1C2.44 8.83333 1.81333 8.40667 1.28 7.82C0.746667 7.22 0.48 6.41333 0.48 5.4C0.48 4.52 0.726667 3.72 1.22 3C1.71333 2.28 2.44667 1.71333 3.42 1.3C4.40667 0.886666 5.6 0.68 7 0.68C7.96 0.68 8.9 0.786666 9.82 0.999999C10.7533 1.2 11.5733 1.5 12.28 1.9L10.86 5.32C9.48667 4.62667 8.18667 4.28 6.96 4.28C5.74667 4.28 5.14 4.57333 5.14 5.16C5.14 5.44 5.32 5.65333 5.68 5.8C6.04 5.93333 6.63333 6.08 7.46 6.24C8.52667 6.44 9.42667 6.67333 10.16 6.94C10.8933 7.19333 11.5267 7.61333 12.06 8.2C12.6067 8.78667 12.88 9.58667 12.88 10.6C12.88 11.48 12.6333 12.28 12.14 13C11.6467 13.7067 10.9067 14.2733 9.92 14.7C8.94667 15.1133 7.76 15.32 6.36 15.32ZM21.7445 3.86C23.0912 3.86 24.1712 4.26667 24.9845 5.08C25.8112 5.89333 26.2245 7.12 26.2245 8.76V15H21.7045V9.54C21.7045 8.28667 21.2579 7.66 20.3645 7.66C19.8579 7.66 19.4445 7.84 19.1245 8.2C18.8179 8.54667 18.6645 9.1 18.6645 9.86V15H14.1445V0.159999H18.6645V4.94C19.5045 4.22 20.5312 3.86 21.7445 3.86ZM33.0875 3.86C35.0075 3.86 36.4742 4.29333 37.4875 5.16C38.5008 6.01333 39.0075 7.33333 39.0075 9.12V15H34.8075V13.56C34.2875 14.6533 33.2542 15.2 31.7075 15.2C30.8408 15.2 30.1008 15.0533 29.4875 14.76C28.8875 14.4533 28.4275 14.0467 28.1075 13.54C27.8008 13.02 27.6475 12.44 27.6475 11.8C27.6475 10.72 28.0608 9.9 28.8875 9.34C29.7142 8.78 30.9675 8.5 32.6475 8.5H34.4675C34.3208 7.64667 33.6342 7.22 32.4075 7.22C31.9142 7.22 31.4142 7.3 30.9075 7.46C30.4008 7.60667 29.9675 7.81333 29.6075 8.08L28.1675 5.1C28.7942 4.71333 29.5475 4.41333 30.4275 4.2C31.3208 3.97333 32.2075 3.86 33.0875 3.86ZM33.0675 12.48C33.3875 12.48 33.6742 12.3933 33.9275 12.22C34.1808 12.0467 34.3675 11.7867 34.4875 11.44V10.68H33.3675C32.4475 10.68 31.9875 10.9867 31.9875 11.6C31.9875 11.8533 32.0808 12.0667 32.2675 12.24C32.4675 12.4 32.7342 12.48 33.0675 12.48ZM45.2609 5.24C46.0609 4.32 47.2409 3.86 48.8009 3.86V7.86C48.4409 7.80667 48.1076 7.78 47.8009 7.78C46.2543 7.78 45.4809 8.56667 45.4809 10.14V15H40.9609V4.06H45.2609V5.24ZM62.0844 0.159999V15H57.7844V14.1C57.131 14.8333 56.131 15.2 54.7844 15.2C53.8244 15.2 52.9377 14.9733 52.1244 14.52C51.3244 14.0533 50.6844 13.3867 50.2044 12.52C49.7377 11.6533 49.5044 10.6533 49.5044 9.52C49.5044 8.38667 49.7377 7.39333 50.2044 6.54C50.6844 5.67333 51.3244 5.01333 52.1244 4.56C52.9377 4.09333 53.8244 3.86 54.7844 3.86C55.9977 3.86 56.9244 4.17333 57.5644 4.8V0.159999H62.0844ZM55.8644 11.68C56.3844 11.68 56.811 11.4933 57.1444 11.12C57.4777 10.7333 57.6444 10.2 57.6444 9.52C57.6444 8.84 57.4777 8.31333 57.1444 7.94C56.811 7.56667 56.3844 7.38 55.8644 7.38C55.3444 7.38 54.9177 7.56667 54.5844 7.94C54.251 8.31333 54.0844 8.84 54.0844 9.52C54.0844 10.2 54.251 10.7333 54.5844 11.12C54.9177 11.4933 55.3444 11.68 55.8644 11.68Z" fill="white"/>
<path d="M75.8659 11.44V15H64.2259V0.999999H75.6059V4.56H68.8659V6.2H74.7859V9.6H68.8659V11.44H75.8659ZM84.443 15L82.943 12.66L81.263 15H76.363L80.503 9.58L76.483 4.06H81.583L83.143 6.38L84.783 4.06H89.523L85.503 9.38L89.623 15H84.443Z" fill="#6F87E7"/>
</svg>
